<?xml version="1.0" encoding="UTF-8" standalone="no"?>
<svg xmlns="http://www.w3.org/2000/svg" width="210" height="210" viewBox="0 0 210 210">
  <title>BMW Logo</title>
  <g>
    <circle cx="105" cy="105" r="105" fill="#0066B1"/>
    <circle cx="105" cy="105" r="95" fill="white"/>
    <circle cx="105" cy="105" r="80" fill="#0066B1"/>
    <path d="M105,25 L105,105 L25,105 A80,80 0 0,1 105,25" fill="#fff"/>
    <path d="M105,25 A80,80 0 0,1 185,105 L105,105 L105,25" fill="#0066B1"/>
    <path d="M105,185 L105,105 L185,105 A80,80 0 0,1 105,185" fill="#fff"/>
    <path d="M105,185 A80,80 0 0,1 25,105 L105,105 L105,185" fill="#0066B1"/>
  </g>
</svg>
